<?xml version="1.0" encoding="UTF-8" standalone="no"?>
<!-- Uploaded to: SVG Repo, www.svgrepo.com, Generator: SVG Repo Mixer Tools -->

<svg
   xmlns:dc="http://purl.org/dc/elements/1.1/"
   xmlns:cc="http://creativecommons.org/ns#"
   xmlns:rdf="http://www.w3.org/1999/02/22-rdf-syntax-ns#"
   xmlns:svg="http://www.w3.org/2000/svg"
   xmlns="http://www.w3.org/2000/svg"
   xmlns:sodipodi="http://sodipodi.sourceforge.net/DTD/sodipodi-0.dtd"
   xmlns:inkscape="http://www.inkscape.org/namespaces/inkscape"
   width="256"
   height="256"
   viewBox="0 0 10.24 10.24"
   id="svg5"
   version="1.1"
   sodipodi:docname="logo.svg"
   inkscape:version="0.92.5 (2060ec1f9f, 2020-04-08)"
   inkscape:export-filename="/home/uniqueg/Work/elixir/logo/cloud/logo.32px.png"
   inkscape:export-xdpi="96"
   inkscape:export-ydpi="96">
  <metadata
     id="metadata8">
    <rdf:RDF>
      <cc:Work
         rdf:about="">
        <dc:format>image/svg+xml</dc:format>
        <dc:type
           rdf:resource="http://purl.org/dc/dcmitype/StillImage" />
        <dc:title></dc:title>
      </cc:Work>
    </rdf:RDF>
  </metadata>
  <sodipodi:namedview
     pagecolor="#ffffff"
     bordercolor="#666666"
     borderopacity="1"
     objecttolerance="10"
     gridtolerance="10"
     guidetolerance="10"
     inkscape:pageopacity="0"
     inkscape:pageshadow="2"
     inkscape:window-width="1848"
     inkscape:window-height="1016"
     id="namedview6"
     showgrid="false"
     inkscape:snap-bbox="true"
     inkscape:bbox-paths="true"
     inkscape:bbox-nodes="true"
     inkscape:snap-bbox-edge-midpoints="true"
     inkscape:snap-bbox-midpoints="true"
     inkscape:object-paths="true"
     inkscape:snap-intersection-paths="true"
     inkscape:snap-smooth-nodes="true"
     inkscape:snap-midpoints="true"
     inkscape:snap-object-midpoints="true"
     inkscape:snap-center="true"
     inkscape:zoom="1.668772"
     inkscape:cx="66.35807"
     inkscape:cy="184.93889"
     inkscape:window-x="72"
     inkscape:window-y="27"
     inkscape:window-maximized="1"
     inkscape:current-layer="svg5"
     fit-margin-top="0"
     fit-margin-left="0"
     fit-margin-right="0"
     fit-margin-bottom="0" />
  <defs
     id="defs2" />
  <g
     id="g918"
     transform="translate(8.3070554,-107.80375)">
    <path
       sodipodi:cx="-13.847457"
       sodipodi:cy="15.406779"
       sodipodi:rx="6.1186438"
       sodipodi:ry="6.1186438"
       sodipodi:end="5.0454335"
       sodipodi:start="1.5707963"
       sodipodi:open="true"
       sodipodi:type="arc"
       d="m -13.847457,21.525423 a 6.1186438,6.1186438 0 0 1 -5.605215,-3.665203 6.1186438,6.1186438 0 0 1 1.110082,-6.604534 6.1186438,6.1186438 0 0 1 6.495451,-1.6313396"
       id="path816"
       style="opacity:1;vector-effect:none;fill:none;fill-opacity:1;stroke:#424242;stroke-width:1.20000005;stroke-linecap:round;stroke-linejoin:miter;stroke-miterlimit:4;stroke-dasharray:none;stroke-dashoffset:0;stroke-opacity:1;paint-order:normal" />
    <path
       transform="matrix(0.49999655,0.8660274,-0.86602341,0.50000345,0,0)"
       sodipodi:cx="2.4112988"
       sodipodi:cy="7.6097598"
       sodipodi:rx="7.4623613"
       sodipodi:ry="7.462327"
       sodipodi:end="5.248786"
       sodipodi:start="1.4551045"
       sodipodi:open="true"
       sodipodi:type="arc"
       d="m 3.2727084,15.022202 a 7.4623613,7.462327 0 0 1 -7.669331,-4.356471 7.4623613,7.462327 0 0 1 1.84172,-8.6258361 7.4623613,7.462327 0 0 1 8.7797841,-0.8444196"
       id="path816-9"
       style="opacity:1;vector-effect:none;fill:none;fill-opacity:1;stroke:#424242;stroke-width:1.20000005;stroke-linecap:round;stroke-linejoin:miter;stroke-miterlimit:4;stroke-dasharray:none;stroke-dashoffset:0;stroke-opacity:1;paint-order:normal" />
    <path
       transform="rotate(160.68634)"
       sodipodi:open="true"
       sodipodi:cx="-0.35168776"
       sodipodi:cy="-10.988802"
       sodipodi:rx="6.1186438"
       sodipodi:ry="6.1186438"
       sodipodi:end="4.1613294"
       sodipodi:start="1.5707963"
       sodipodi:type="arc"
       d="M -0.3516876,-4.8701582 A 6.1186438,6.1186438 0 0 1 -6.2395436,-9.3241833 6.1186438,6.1186438 0 0 1 -3.55535,-16.201704"
       id="path816-6"
       style="opacity:1;vector-effect:none;fill:none;fill-opacity:1;stroke:#424242;stroke-width:1.20000005;stroke-linecap:round;stroke-linejoin:miter;stroke-miterlimit:4;stroke-dasharray:none;stroke-dashoffset:0;stroke-opacity:1;paint-order:normal" />
    <path
       inkscape:connector-curvature="0"
       id="path848"
       d="M -13.847457,21.525423 H 9.9661018"
       style="fill:none;stroke:#424242;stroke-width:1.20000005;stroke-linecap:round;stroke-linejoin:miter;stroke-miterlimit:4;stroke-dasharray:none;stroke-opacity:1" />
    <path
       transform="scale(-1)"
       sodipodi:cx="-9.9661016"
       sodipodi:cy="-16.716927"
       sodipodi:rx="4.6900973"
       sodipodi:ry="4.8084965"
       sodipodi:end="4.712389"
       sodipodi:start="1.5707963"
       sodipodi:open="true"
       sodipodi:type="arc"
       d="m -9.9661015,-11.90843 a 4.6900973,4.8084965 0 0 1 -4.0617435,-2.404248 4.6900973,4.8084965 0 0 1 0,-4.808497 4.6900973,4.8084965 0 0 1 4.0617434,-2.404248"
       id="path816-61"
       style="opacity:1;vector-effect:none;fill:none;fill-opacity:1;stroke:#424242;stroke-width:1.20000005;stroke-linecap:round;stroke-linejoin:miter;stroke-miterlimit:4;stroke-dasharray:none;stroke-dashoffset:0;stroke-opacity:1;paint-order:normal" />
  </g>
  <g
     id="g1538"
     inkscape:export-xdpi="96"
     inkscape:export-ydpi="96"
     transform="matrix(0.46875,0,0,0.46875,-73.713994,-35.285599)">
    <g
       transform="translate(0,-9.6)"
       id="g1462">
      <g
         id="g1166"
         transform="matrix(0.57816687,0,0,0.57816687,66.623982,42.401753)">
        <path
           transform="scale(0.04)"
           inkscape:connector-curvature="0"
           id="path1150"
           d="m 4320.9943,1929.4829 c -74.1308,-1.3492 -144.4677,49.6021 -169.5677,118.846 -17.5993,46.9148 -14.494,101.6141 8.1667,146.2924 75.875,95.8782 154.9979,189.1649 233.59,282.8239 4.4573,2.4278 13.1016,21.1732 15.2902,13.3654 31.6065,-138.4527 63.0698,-276.9381 94.5951,-415.4094 -13.5323,-60.2042 -57.4008,-112.9138 -115.5725,-134.4582 -21.1233,-8.3832 -43.8283,-11.9599 -66.5018,-11.4601 z"
           style="opacity:1;vector-effect:none;fill:#5aba62;fill-opacity:1;stroke:none;stroke-width:5;stroke-linecap:round;stroke-linejoin:miter;stroke-miterlimit:4;stroke-dasharray:none;stroke-dashoffset:0;stroke-opacity:1;paint-order:normal" />
        <path
           inkscape:connector-curvature="0"
           d="m 176.36438,100.11228 3.88333,-17.045646 m -3.88333,17.045646 -9.90646,-11.901074 m -1e-5,-1.2e-5 c -1.49158,-2.562164 -1.3115,-5.741043 0.43791,-8.134585 1.7494,-2.39354 4.74978,-3.524468 7.64383,-2.881182 2.89406,0.643288 5.13734,2.961945 5.70806,5.871207"
           style="fill:none;stroke:#424242;stroke-width:0.80000001;stroke-linecap:round;stroke-linejoin:miter;stroke-miterlimit:4;stroke-dasharray:none;stroke-opacity:1"
           id="path1069-4" />
      </g>
      <g
         id="g1162"
         transform="matrix(0.57816687,0,0,0.57816687,66.623982,42.401753)">
        <path
           transform="scale(0.04)"
           inkscape:connector-curvature="0"
           id="path1152"
           d="m 4557.627,2072.0412 c -15.9632,1.2288 -33.9157,0.098 -48.08,8.0475 -32.3205,136.4912 -62.9725,273.5768 -93.9619,410.2523 29.1328,-18.9098 54.9552,-43.0903 82.3913,-64.5437 67.922,-56.1865 137.3536,-110.6401 203.9799,-168.3384 15.1713,-58.6994 -9.7123,-124.7603 -59.871,-158.8702 -24.5082,-17.0677 -54.3903,-27.5727 -84.4583,-26.5475 z"
           style="opacity:1;vector-effect:none;fill:#ffcb00;fill-opacity:1;stroke:none;stroke-width:5;stroke-linecap:round;stroke-linejoin:miter;stroke-miterlimit:4;stroke-dasharray:none;stroke-dashoffset:0;stroke-opacity:1;paint-order:normal" />
        <path
           inkscape:connector-curvature="0"
           d="m 176.36438,100.11228 11.80565,-9.64539 m -11.80565,9.64539 3.88333,-17.045646 m -1e-5,-1.3e-5 a 6.1186436,6.1186436 0 0 1 6.20038,1.30295 6.1186436,6.1186436 0 0 1 1.72195,6.097319"
           style="fill:none;stroke:#424242;stroke-width:0.80000001;stroke-linecap:round;stroke-linejoin:miter;stroke-miterlimit:4;stroke-dasharray:none;stroke-opacity:1"
           id="path1071-1" />
      </g>
      <g
         id="g1158"
         transform="matrix(0.57816687,0,0,0.57816687,66.623982,42.401753)">
        <path
           transform="scale(0.04)"
           inkscape:connector-curvature="0"
           id="path1154"
           d="m 4709.4046,2264.8874 c -49.7973,36.1383 -96.4459,76.5775 -144.4916,115.0385 -48.579,39.5697 -96.928,79.4249 -145.6798,118.7804 100.9779,-0.522 201.9931,1.1641 302.9462,-1.2414 44.0639,-3.865 80.8638,-40.0531 93.654,-81.2301 11.1303,-40.8441 1.3437,-88.2596 -30.858,-117.2124 -19.1898,-20.582 -48.1251,-31.3482 -75.5708,-34.135 z"
           style="opacity:1;vector-effect:none;fill:#23a9f6;fill-opacity:1;stroke:none;stroke-width:5;stroke-linecap:round;stroke-linejoin:miter;stroke-miterlimit:4;stroke-dasharray:none;stroke-dashoffset:0;stroke-opacity:1;paint-order:normal" />
        <path
           inkscape:connector-curvature="0"
           d="m 176.36438,100.11228 h 11.90678 m -11.90678,0 11.80565,-9.64539 m 0,-1.6e-5 c 1.67561,0 3.32507,0.94491 4.16287,2.432662 0.83781,1.487754 0.83781,3.320742 0,4.808494 -0.8378,1.48776 -2.38613,2.40425 -4.06174,2.40425"
           style="fill:none;stroke:#424242;stroke-width:0.80000001;stroke-linecap:round;stroke-linejoin:miter;stroke-miterlimit:4;stroke-dasharray:none;stroke-opacity:1"
           id="path1092-8" />
      </g>
      <g
         id="g1170"
         transform="matrix(0.57816687,0,0,0.57816687,66.623982,42.401753)">
        <path
           transform="scale(0.04)"
           inkscape:connector-curvature="0"
           id="path1148"
           d="m 4108.3702,2201.2646 c -77.9413,-2.2656 -147.5098,69.6309 -145.7594,147.0108 -3.2352,69.0089 50.2881,134.313 117.5768,147.681 21.4825,5.6337 44.2331,1.372 66.2653,2.7163 84.4596,-0.1901 168.9499,0.6809 253.3898,-0.7946 -79.6405,-97.306 -160.6042,-193.5319 -240.9163,-290.2873 -16.3654,-5.1642 -33.4718,-6.6191 -50.5562,-6.3262 z"
           style="opacity:1;vector-effect:none;fill:#f95b45;fill-opacity:1;stroke:none;stroke-width:5;stroke-linecap:round;stroke-linejoin:miter;stroke-miterlimit:4;stroke-dasharray:none;stroke-dashoffset:0;stroke-opacity:1;paint-order:normal" />
        <path
           inkscape:connector-curvature="0"
           d="M 176.36438,100.11228 H 164.4576 m 11.90678,0 -9.90646,-11.901074 m -2.00032,11.901074 c -2.43054,0 -4.63062,-1.43862 -5.60521,-3.665202 -0.97459,-2.226586 -0.53888,-4.81891 1.11008,-6.604534 1.64896,-1.785622 4.19846,-2.425946 6.49544,-1.63135"
           style="fill:none;stroke:#424242;stroke-width:0.80000001;stroke-linecap:round;stroke-linejoin:miter;stroke-miterlimit:4;stroke-dasharray:none;stroke-opacity:1"
           id="path1094-5" />
      </g>
    </g>
    <text
       id="text1236-8-8"
       y="95.23703"
       x="162.54152"
       style="font-style:normal;font-variant:normal;font-weight:normal;font-stretch:normal;font-size:8.84874249px;line-height:1.25;font-family:'Liberation Sans';-inkscape-font-specification:'Liberation Sans';letter-spacing:0px;word-spacing:-0.00051848px;stroke-width:0.05184809"
       xml:space="preserve"><tspan
         style="font-style:normal;font-variant:normal;font-weight:bold;font-stretch:normal;font-size:4.97741747px;font-family:Corbel;-inkscape-font-specification:Corbel;letter-spacing:-0.25924048px;word-spacing:0px;stroke-width:0.05184809"
         y="95.23703"
         x="162.54152"
         id="tspan1234-8-3"
         sodipodi:role="line"><tspan
           id="tspan1238-8-3"
           style="font-weight:bold;font-size:4.97741747px;letter-spacing:-0.25924048px;word-spacing:0px;fill:#424242;stroke-width:0.05184809">Cloud</tspan><tspan
           id="tspan1240-6-3"
           style="font-weight:bold;font-size:4.97741747px;letter-spacing:-0.25924048px;word-spacing:0px;fill:#90a4ae;stroke-width:0.05184809" /></tspan></text>
  </g>
</svg>
